<svg width="32" height="33" viewBox="0 0 32 33" fill="none" xmlns="http://www.w3.org/2000/svg">
<path d="M5.07188 9.70292C5.2168 9.07709 5.57307 8.51832 6.08232 8.1181C6.59158 7.71789 7.22365 7.49996 7.875 7.5H25.125C25.7764 7.49996 26.4084 7.71789 26.9177 8.1181C27.4269 8.51832 27.7832 9.07709 27.9281 9.70292L16.5 16.5865L5.07188 9.70292ZM5 11.3207V21.3847L13.3418 16.3442L5 11.3207ZM14.7189 17.1758L5.27456 22.8807C5.50791 23.3657 5.87619 23.7753 6.33656 24.0619C6.79693 24.3486 7.33044 24.5005 7.875 24.5H25.125C25.6695 24.5001 26.2028 24.3479 26.6629 24.061C27.123 23.7741 27.491 23.3643 27.724 22.8793L18.2796 17.1744L16.5 18.2468L14.7189 17.1744V17.1758ZM19.6582 16.3457L28 21.3847V11.3207L19.6582 16.3442V16.3457Z" fill="#ABB2BF"/>
</svg>
