<svg width="33" height="32" viewBox="0 0 33 32" fill="none" xmlns="http://www.w3.org/2000/svg">
<path d="M30.5 6.66694C30.5 4.2148 28.2849 2 25.8334 2H7.1673C4.71392 2 2.5 4.2148 2.5 6.66694V25.333C2.5 27.7852 4.71392 30 7.1673 30L16.4999 29.9999V19.6841H12.8157L12.8158 15.2629H16.5V12.9374C16.5 9.80176 18.8551 6.97774 21.7515 6.97774H25.5223V11.6445H21.7515C21.3378 11.6445 20.9211 12.1173 20.9211 12.8683V15.2629L25.7105 15.2629L25.342 19.6841H20.921V29.9999L25.8334 30C28.2849 30 30.5 27.7852 30.5 25.333V6.66694Z" fill="white"/>
</svg>
