<svg width="32" height="33" viewBox="0 0 32 33" fill="none" xmlns="http://www.w3.org/2000/svg">
<path d="M15.5 6.5C9.69875 6.5 5 11.0882 5 16.7529C5 21.2899 8.00562 25.1219 12.1794 26.4804C12.7044 26.5701 12.9012 26.2625 12.9012 25.9934C12.9012 25.7499 12.8881 24.9425 12.8881 24.0838C10.25 24.558 9.5675 23.4558 9.3575 22.8791C9.23937 22.5843 8.7275 21.6743 8.28125 21.4308C7.91375 21.2386 7.38875 20.7644 8.26813 20.7516C9.095 20.7388 9.68563 21.4949 9.8825 21.8025C10.8275 23.3533 12.3369 22.9175 12.9406 22.6484C13.0325 21.9819 13.3081 21.5334 13.61 21.277C11.2737 21.0207 8.8325 20.1364 8.8325 16.2147C8.8325 15.0997 9.23938 14.1769 9.90875 13.4592C9.80375 13.2029 9.43625 12.1519 10.0137 10.7422C10.0137 10.7422 10.8931 10.473 12.9012 11.7931C13.7412 11.5624 14.6338 11.447 15.5263 11.447C16.4188 11.447 17.3113 11.5624 18.1513 11.7931C20.1594 10.4602 21.0388 10.7422 21.0388 10.7422C21.6163 12.1519 21.2488 13.2029 21.1438 13.4592C21.8131 14.1769 22.22 15.0868 22.22 16.2147C22.22 20.1492 19.7656 21.0207 17.4294 21.277C17.81 21.5975 18.1381 22.2126 18.1381 23.1738C18.1381 24.5452 18.125 25.6474 18.125 25.9934C18.125 26.2625 18.3219 26.5829 18.8469 26.4804C20.9314 25.7935 22.7428 24.4854 24.026 22.7403C25.3092 20.9953 25.9996 18.9012 26 16.7529C26 11.0882 21.3013 6.5 15.5 6.5Z" fill="#ABB2BF"/>
</svg>
