<svg width="35" height="33" viewBox="0 0 35 33" fill="none" xmlns="http://www.w3.org/2000/svg">
<path fill-rule="evenodd" clip-rule="evenodd" d="M17.5 0C27.1652 0 35 7.57337 35 16.9173C35 24.3902 29.9915 30.7295 23.0422 32.9685C22.155 33.1352 21.84 32.6069 21.84 32.1564C21.84 31.5987 21.861 29.7772 21.861 27.5134C21.861 25.936 21.301 24.9065 20.6728 24.3818C24.57 23.9627 28.665 22.532 28.665 16.0343C28.665 14.1863 27.986 12.6783 26.8625 11.4936C27.0445 11.0662 27.6447 9.34551 26.691 7.01571C26.691 7.01571 25.2245 6.56241 21.8837 8.75031C20.4855 8.37576 18.9875 8.1873 17.5 8.1807C16.0125 8.1873 14.5163 8.37576 13.1198 8.75031C9.7755 6.56241 8.3055 7.01571 8.3055 7.01571C7.35525 9.34551 7.9555 11.0662 8.13575 11.4936C7.0175 12.6783 6.33326 14.1863 6.33326 16.0343C6.33326 22.5155 10.4195 23.9681 14.3063 24.3955C13.8058 24.8179 13.3525 25.563 13.195 26.657C12.1975 27.0893 9.6635 27.8374 8.1025 25.2519C8.1025 25.2519 7.17675 23.6264 5.41975 23.5076C5.41975 23.5076 3.7135 23.4863 5.30075 24.5357C5.30075 24.5357 6.447 25.0554 7.24325 27.0107C7.24325 27.0107 8.27051 30.0301 13.139 29.0071C13.1478 30.4211 13.1635 31.7538 13.1635 32.1564C13.1635 32.6036 12.8415 33.1269 11.9682 32.9702C5.01374 30.7344 0 24.3918 0 16.9173C0 7.57337 7.8365 0 17.5 0Z" fill="black"/>
</svg>
