<svg width="153" height="32" viewBox="0 0 153 32" fill="none" xmlns="http://www.w3.org/2000/svg">
<path d="M15.5 6C9.69875 6 5 10.5882 5 16.2529C5 20.7899 8.00562 24.6219 12.1794 25.9804C12.7044 26.0701 12.9012 25.7625 12.9012 25.4934C12.9012 25.2499 12.8881 24.4425 12.8881 23.5838C10.25 24.058 9.5675 22.9558 9.3575 22.3791C9.23938 22.0843 8.7275 21.1743 8.28125 20.9308C7.91375 20.7386 7.38875 20.2644 8.26813 20.2516C9.095 20.2388 9.68563 20.9949 9.8825 21.3025C10.8275 22.8533 12.3369 22.4175 12.9406 22.1484C13.0325 21.4819 13.3081 21.0334 13.61 20.777C11.2737 20.5207 8.8325 19.6364 8.8325 15.7147C8.8325 14.5997 9.23938 13.6769 9.90875 12.9592C9.80375 12.7029 9.43625 11.6519 10.0138 10.2422C10.0138 10.2422 10.8931 9.97301 12.9012 11.2931C13.7413 11.0624 14.6338 10.947 15.5263 10.947C16.4188 10.947 17.3113 11.0624 18.1513 11.2931C20.1594 9.9602 21.0387 10.2422 21.0387 10.2422C21.6163 11.6519 21.2488 12.7029 21.1438 12.9592C21.8131 13.6769 22.22 14.5868 22.22 15.7147C22.22 19.6492 19.7656 20.5207 17.4294 20.777C17.81 21.0975 18.1381 21.7126 18.1381 22.6738C18.1381 24.0452 18.125 25.1474 18.125 25.4934C18.125 25.7625 18.3219 26.0829 18.8469 25.9804C20.9314 25.2935 22.7428 23.9854 24.026 22.2403C25.3092 20.4953 25.9996 18.4012 26 16.2529C26 10.5882 21.3013 6 15.5 6Z" fill="#ABB2BF"/>
<path d="M102.5 8.8C101.814 8.8 101.3 9.31429 101.3 10C101.3 10.6857 101.814 11.2 102.5 11.2C103.186 11.2 103.7 10.6857 103.7 10C103.7 9.31429 103.186 8.8 102.5 8.8Z" fill="#ABB2BF"/>
<path d="M96.5 10C93.1441 10 90.5 12.7458 90.5 16C90.5 19.2542 93.2458 22 96.5 22C99.7542 22 102.5 19.2542 102.5 16C102.5 12.7458 99.8559 10 96.5 10ZM96.5 19.8644C94.3644 19.8644 92.6356 18.1356 92.6356 16C92.6356 13.8644 94.3644 12.1356 96.5 12.1356C98.6356 12.1356 100.364 13.8644 100.364 16C100.364 18.1356 98.6356 19.8644 96.5 19.8644Z" fill="#ABB2BF"/>
<path d="M101.369 4H91.8298C87.7131 4 84.5 7.21339 84.5 11.2301V20.7699C84.5 24.7866 87.7131 28 91.7294 28H101.268C105.285 28 108.498 24.7866 108.498 20.7699V11.2301C108.598 7.21339 105.385 4 101.369 4ZM106.289 20.8703C106.289 23.5816 104.08 25.8912 101.268 25.8912H91.7294C89.0184 25.8912 86.709 23.682 86.709 20.8703V11.3305C86.709 8.61925 88.918 6.30962 91.7294 6.30962H101.268C103.979 6.30962 106.289 8.51883 106.289 11.3305V20.8703Z" fill="#ABB2BF"/>
<path d="M44 5.719C44 4.7695 44.789 4 45.7625 4H66.2375C67.211 4 68 4.7695 68 5.719V26.281C68 27.2305 67.211 28 66.2375 28H45.7625C44.789 28 44 27.2305 44 26.281V5.719ZM51.4145 24.091V13.2535H47.813V24.091H51.4145ZM49.6145 11.773C50.87 11.773 51.6515 10.942 51.6515 9.901C51.629 8.8375 50.8715 8.029 49.6385 8.029C48.4055 8.029 47.6 8.839 47.6 9.901C47.6 10.942 48.3815 11.773 49.5905 11.773H49.6145ZM56.9765 24.091V18.0385C56.9765 17.7145 57.0005 17.3905 57.0965 17.1595C57.356 16.513 57.9485 15.8425 58.9445 15.8425C60.248 15.8425 60.7685 16.8355 60.7685 18.2935V24.091H64.37V17.875C64.37 14.545 62.594 12.997 60.224 12.997C58.313 12.997 57.4565 14.047 56.9765 14.7865V14.824H56.9525C56.9605 14.8115 56.9685 14.799 56.9765 14.7865V13.2535H53.3765C53.4215 14.2705 53.3765 24.091 53.3765 24.091H56.9765Z" fill="#ABB2BF"/>
<path d="M125.572 9.20292C125.717 8.57709 126.073 8.01832 126.582 7.6181C127.092 7.21789 127.724 6.99996 128.375 7H145.625C146.276 6.99996 146.908 7.21789 147.418 7.6181C147.927 8.01832 148.283 8.57709 148.428 9.20292L137 16.0865L125.572 9.20292ZM125.5 10.8207V20.8847L133.842 15.8442L125.5 10.8207ZM135.219 16.6758L125.775 22.3807C126.008 22.8657 126.376 23.2753 126.837 23.5619C127.297 23.8486 127.83 24.0005 128.375 24H145.625C146.169 24.0001 146.703 23.8479 147.163 23.561C147.623 23.274 147.991 22.8643 148.224 22.3793L138.78 16.6744L137 17.7468L135.219 16.6744V16.6758ZM140.158 15.8457L148.5 20.8847V10.8207L140.158 15.8442V15.8457Z" fill="#ABB2BF"/>
</svg>
