<svg width="32" height="33" viewBox="0 0 32 33" fill="none" xmlns="http://www.w3.org/2000/svg">
<path d="M22 9.3C21.3143 9.3 20.8 9.81429 20.8 10.5C20.8 11.1857 21.3143 11.7 22 11.7C22.6857 11.7 23.2 11.1857 23.2 10.5C23.2 9.81429 22.6857 9.3 22 9.3Z" fill="#ABB2BF"/>
<path d="M16 10.5C12.6441 10.5 10 13.2458 10 16.5C10 19.7542 12.7458 22.5 16 22.5C19.2542 22.5 22 19.7542 22 16.5C22 13.2458 19.3559 10.5 16 10.5ZM16 20.3644C13.8644 20.3644 12.1356 18.6356 12.1356 16.5C12.1356 14.3644 13.8644 12.6356 16 12.6356C18.1356 12.6356 19.8644 14.3644 19.8644 16.5C19.8644 18.6356 18.1356 20.3644 16 20.3644Z" fill="#ABB2BF"/>
<path d="M20.8687 4.5H11.3298C7.21308 4.5 4 7.71339 4 11.7301V21.2699C4 25.2866 7.21308 28.5 11.2294 28.5H20.7683C24.7846 28.5 27.9977 25.2866 27.9977 21.2699V11.7301C28.0981 7.71339 24.885 4.5 20.8687 4.5ZM25.7887 21.3703C25.7887 24.0816 23.5797 26.3912 20.7683 26.3912H11.2294C8.5184 26.3912 6.20899 24.182 6.20899 21.3703V11.8305C6.20899 9.11925 8.41799 6.80962 11.2294 6.80962H20.7683C23.4793 6.80962 25.7887 9.01883 25.7887 11.8305V21.3703Z" fill="#ABB2BF"/>
</svg>
