<svg width="32" height="32" viewBox="0 0 32 32" fill="none" xmlns="http://www.w3.org/2000/svg">
<path d="M22 8.8C21.3143 8.8 20.8 9.31429 20.8 10C20.8 10.6857 21.3143 11.2 22 11.2C22.6857 11.2 23.2 10.6857 23.2 10C23.2 9.31429 22.6857 8.8 22 8.8Z" fill="#ABB2BF"/>
<path d="M16 10C12.6441 10 10 12.7458 10 16C10 19.2542 12.7458 22 16 22C19.2542 22 22 19.2542 22 16C22 12.7458 19.3559 10 16 10ZM16 19.8644C13.8644 19.8644 12.1356 18.1356 12.1356 16C12.1356 13.8644 13.8644 12.1356 16 12.1356C18.1356 12.1356 19.8644 13.8644 19.8644 16C19.8644 18.1356 18.1356 19.8644 16 19.8644Z" fill="#ABB2BF"/>
<path d="M20.8687 4H11.3298C7.21308 4 4 7.21339 4 11.2301V20.7699C4 24.7866 7.21308 28 11.2294 28H20.7683C24.7846 28 27.9977 24.7866 27.9977 20.7699V11.2301C28.0981 7.21339 24.885 4 20.8687 4ZM25.7887 20.8703C25.7887 23.5816 23.5797 25.8912 20.7683 25.8912H11.2294C8.5184 25.8912 6.20899 23.682 6.20899 20.8703V11.3305C6.20899 8.61925 8.41799 6.30962 11.2294 6.30962H20.7683C23.4793 6.30962 25.7887 8.51883 25.7887 11.3305V20.8703Z" fill="#ABB2BF"/>
</svg>
