<svg width="32" height="33" viewBox="0 0 32 33" fill="none" xmlns="http://www.w3.org/2000/svg">
<path d="M4 6.219C4 5.2695 4.789 4.5 5.7625 4.5H26.2375C27.211 4.5 28 5.2695 28 6.219V26.781C28 27.7305 27.211 28.5 26.2375 28.5H5.7625C4.789 28.5 4 27.7305 4 26.781V6.219ZM11.4145 24.591V13.7535H7.813V24.591H11.4145ZM9.6145 12.273C10.87 12.273 11.6515 11.442 11.6515 10.401C11.629 9.3375 10.8715 8.529 9.6385 8.529C8.4055 8.529 7.6 9.339 7.6 10.401C7.6 11.442 8.3815 12.273 9.5905 12.273H9.6145ZM16.9765 24.591V18.5385C16.9765 18.2145 17.0005 17.8905 17.0965 17.6595C17.356 17.013 17.9485 16.3425 18.9445 16.3425C20.248 16.3425 20.7685 17.3355 20.7685 18.7935V24.591H24.37V18.375C24.37 15.045 22.594 13.497 20.224 13.497C18.313 13.497 17.4565 14.547 16.9765 15.2865V15.324H16.9525C16.9605 15.3115 16.9685 15.299 16.9765 15.2865V13.7535H13.3765C13.4215 14.7705 13.3765 24.591 13.3765 24.591H16.9765Z" fill="#ABB2BF"/>
</svg>
