<svg width="34" height="34" viewBox="0 0 34 34" fill="none" xmlns="http://www.w3.org/2000/svg">
<path d="M34 17.1039C34 7.65767 26.3888 2.0014e-07 17 2.0014e-07C7.61115 2.0014e-07 0 7.65767 0 17.1039C0 25.6409 6.21665 32.7169 14.3438 34V22.048H10.0273V17.1039H14.3438V13.3357C14.3438 9.04903 16.8817 6.68121 20.7649 6.68121C22.6248 6.68121 24.5703 7.01527 24.5703 7.01527V11.2244H22.4267C20.3148 11.2244 19.6563 12.5429 19.6563 13.8955V17.1039H24.3711L23.6174 22.048H19.6563V34C27.7833 32.7169 34 25.6409 34 17.1039Z" fill="white"/>
</svg>
