<svg width="31" height="34" viewBox="0 0 31 34" fill="none" xmlns="http://www.w3.org/2000/svg">
<path d="M30.3503 26.4963C29.7937 27.6842 29.1349 28.7776 28.3716 29.7829C27.3312 31.1533 26.4793 32.102 25.8227 32.6287C24.805 33.4934 23.7146 33.9362 22.5469 33.9614C21.7086 33.9614 20.6977 33.741 19.521 33.294C18.3403 32.8491 17.2554 32.6287 16.2633 32.6287C15.2229 32.6287 14.107 32.8491 12.9134 33.294C11.718 33.741 10.755 33.974 10.0188 33.9971C8.89904 34.0412 7.78294 33.5857 6.66888 32.6287C5.95783 32.0558 5.06845 31.0736 4.00301 29.6822C2.85988 28.1963 1.92006 26.4732 1.1838 24.5089C0.395281 22.3871 0 20.3324 0 18.3433C0 16.0647 0.532947 14.0995 1.60043 12.4527C2.43938 11.1298 3.55548 10.0864 4.95237 9.32034C6.34925 8.55431 7.85859 8.16395 9.48401 8.13898C10.3734 8.13898 11.5397 8.39313 12.9891 8.89262C14.4343 9.39379 15.3623 9.64795 15.7692 9.64795C16.0734 9.64795 17.1043 9.35077 18.8519 8.75831C20.5046 8.20887 21.8995 7.98137 23.0421 8.07098C26.1385 8.30184 28.4648 9.42947 30.0118 11.461C27.2426 13.0111 25.8727 15.1822 25.9 17.9674C25.925 20.1368 26.7769 21.9421 28.4511 23.3756C29.2099 24.0408 30.0572 24.555 31 24.9202C30.7955 25.468 30.5797 25.9926 30.3503 26.4963V26.4963ZM23.2489 0.680194C23.2489 2.38058 22.5764 3.96823 21.2361 5.43774C19.6186 7.1847 17.6622 8.19417 15.5407 8.03488C15.5136 7.83089 15.498 7.61619 15.498 7.39058C15.498 5.75821 16.2672 4.01125 17.6332 2.58288C18.3151 1.85966 19.1825 1.25832 20.2343 0.778622C21.2838 0.306078 22.2766 0.0447511 23.2102 0C23.2375 0.227315 23.2489 0.454645 23.2489 0.680172V0.680194Z" fill="white"/>
</svg>
